<svg width="489" height="149" viewBox="0 0 489 149" fill="none" xmlns="http://www.w3.org/2000/svg">
<path d="M131.323 128.1C132.29 128.1 133.184 127.902 134.004 127.506C134.824 127.111 135.498 126.569 136.025 125.88C136.553 125.177 136.853 124.379 136.926 123.485H140.793C140.72 124.892 140.244 126.203 139.365 127.418C138.501 128.62 137.366 129.594 135.959 130.341C134.553 131.073 133.008 131.439 131.323 131.439C129.536 131.439 127.976 131.125 126.643 130.495C125.325 129.865 124.226 129 123.347 127.902C122.483 126.803 121.831 125.543 121.392 124.123C120.967 122.687 120.754 121.171 120.754 119.574V118.651C120.754 117.055 120.967 115.546 121.392 114.125C121.831 112.689 122.483 111.422 123.347 110.324C124.226 109.225 125.325 108.361 126.643 107.731C127.976 107.101 129.536 106.786 131.323 106.786C133.184 106.786 134.81 107.167 136.201 107.929C137.593 108.676 138.684 109.701 139.475 111.005C140.281 112.294 140.72 113.759 140.793 115.399H136.926C136.853 114.418 136.575 113.532 136.091 112.741C135.623 111.95 134.978 111.32 134.158 110.851C133.352 110.368 132.407 110.126 131.323 110.126C130.078 110.126 129.031 110.375 128.181 110.873C127.346 111.356 126.68 112.016 126.182 112.851C125.698 113.671 125.347 114.586 125.127 115.597C124.922 116.593 124.819 117.611 124.819 118.651V119.574C124.819 120.614 124.922 121.64 125.127 122.65C125.332 123.661 125.676 124.577 126.16 125.397C126.658 126.217 127.324 126.876 128.159 127.375C129.009 127.858 130.063 128.1 131.323 128.1ZM144.287 119.376V118.871C144.287 117.157 144.536 115.568 145.034 114.103C145.532 112.624 146.25 111.342 147.188 110.258C148.125 109.159 149.26 108.31 150.593 107.709C151.926 107.094 153.42 106.786 155.076 106.786C156.746 106.786 158.247 107.094 159.58 107.709C160.928 108.31 162.07 109.159 163.008 110.258C163.96 111.342 164.685 112.624 165.183 114.103C165.681 115.568 165.93 117.157 165.93 118.871V119.376C165.93 121.09 165.681 122.68 165.183 124.145C164.685 125.609 163.96 126.891 163.008 127.99C162.07 129.074 160.935 129.923 159.602 130.539C158.284 131.139 156.79 131.439 155.12 131.439C153.45 131.439 151.948 131.139 150.615 130.539C149.282 129.923 148.14 129.074 147.188 127.99C146.25 126.891 145.532 125.609 145.034 124.145C144.536 122.68 144.287 121.09 144.287 119.376ZM148.352 118.871V119.376C148.352 120.563 148.491 121.684 148.77 122.738C149.048 123.778 149.465 124.701 150.022 125.507C150.593 126.312 151.304 126.95 152.153 127.418C153.003 127.873 153.992 128.1 155.12 128.1C156.233 128.1 157.207 127.873 158.042 127.418C158.892 126.95 159.595 126.312 160.151 125.507C160.708 124.701 161.125 123.778 161.404 122.738C161.697 121.684 161.843 120.563 161.843 119.376V118.871C161.843 117.699 161.697 116.593 161.404 115.553C161.125 114.499 160.701 113.568 160.129 112.763C159.573 111.942 158.87 111.298 158.02 110.829C157.185 110.36 156.204 110.126 155.076 110.126C153.962 110.126 152.981 110.36 152.131 110.829C151.296 111.298 150.593 111.942 150.022 112.763C149.465 113.568 149.048 114.499 148.77 115.553C148.491 116.593 148.352 117.699 148.352 118.871ZM175.071 111.95V131H170.984V107.226H174.851L175.071 111.95ZM174.236 118.212L172.346 118.146C172.361 116.52 172.573 115.019 172.983 113.642C173.394 112.25 174.001 111.042 174.807 110.016C175.613 108.991 176.616 108.2 177.817 107.643C179.019 107.072 180.41 106.786 181.992 106.786C183.105 106.786 184.131 106.947 185.068 107.27C186.006 107.577 186.819 108.068 187.507 108.742C188.196 109.416 188.73 110.28 189.111 111.334C189.492 112.389 189.683 113.664 189.683 115.158V131H185.618V115.355C185.618 114.11 185.405 113.114 184.98 112.367C184.57 111.62 183.984 111.078 183.223 110.741C182.461 110.39 181.567 110.214 180.542 110.214C179.341 110.214 178.337 110.426 177.532 110.851C176.726 111.276 176.082 111.862 175.598 112.609C175.115 113.356 174.763 114.213 174.543 115.18C174.338 116.132 174.236 117.143 174.236 118.212ZM189.639 115.971L186.914 116.806C186.929 115.502 187.141 114.25 187.551 113.048C187.976 111.847 188.584 110.778 189.375 109.84C190.181 108.903 191.169 108.163 192.341 107.621C193.513 107.064 194.854 106.786 196.362 106.786C197.637 106.786 198.765 106.955 199.746 107.292C200.742 107.628 201.577 108.148 202.251 108.852C202.939 109.54 203.459 110.426 203.811 111.51C204.163 112.594 204.338 113.883 204.338 115.377V131H200.251V115.333C200.251 114 200.039 112.968 199.614 112.235C199.204 111.488 198.618 110.968 197.856 110.675C197.109 110.368 196.216 110.214 195.176 110.214C194.282 110.214 193.491 110.368 192.803 110.675C192.114 110.983 191.536 111.408 191.067 111.95C190.598 112.477 190.239 113.085 189.99 113.773C189.756 114.462 189.639 115.194 189.639 115.971ZM214.534 111.95V131H210.447V107.226H214.314L214.534 111.95ZM213.699 118.212L211.809 118.146C211.824 116.52 212.036 115.019 212.446 113.642C212.856 112.25 213.464 111.042 214.27 110.016C215.076 108.991 216.079 108.2 217.28 107.643C218.481 107.072 219.873 106.786 221.455 106.786C222.568 106.786 223.594 106.947 224.531 107.27C225.469 107.577 226.282 108.068 226.97 108.742C227.659 109.416 228.193 110.28 228.574 111.334C228.955 112.389 229.146 113.664 229.146 115.158V131H225.081V115.355C225.081 114.11 224.868 113.114 224.443 112.367C224.033 111.62 223.447 111.078 222.686 110.741C221.924 110.39 221.03 110.214 220.005 110.214C218.804 110.214 217.8 110.426 216.995 110.851C216.189 111.276 215.544 111.862 215.061 112.609C214.578 113.356 214.226 114.213 214.006 115.18C213.801 116.132 213.699 117.143 213.699 118.212ZM229.102 115.971L226.377 116.806C226.392 115.502 226.604 114.25 227.014 113.048C227.439 111.847 228.047 110.778 228.838 109.84C229.644 108.903 230.632 108.163 231.804 107.621C232.976 107.064 234.316 106.786 235.825 106.786C237.1 106.786 238.228 106.955 239.209 107.292C240.205 107.628 241.04 108.148 241.714 108.852C242.402 109.54 242.922 110.426 243.274 111.51C243.625 112.594 243.801 113.883 243.801 115.377V131H239.714V115.333C239.714 114 239.502 112.968 239.077 112.235C238.667 111.488 238.081 110.968 237.319 110.675C236.572 110.368 235.679 110.214 234.639 110.214C233.745 110.214 232.954 110.368 232.266 110.675C231.577 110.983 230.999 111.408 230.53 111.95C230.061 112.477 229.702 113.085 229.453 113.773C229.219 114.462 229.102 115.194 229.102 115.971ZM264.5 125.507V107.226H268.586V131H264.697L264.5 125.507ZM265.269 120.497L266.96 120.453C266.96 122.035 266.792 123.5 266.455 124.848C266.133 126.181 265.605 127.338 264.873 128.319C264.141 129.301 263.181 130.07 261.995 130.626C260.808 131.168 259.365 131.439 257.666 131.439C256.509 131.439 255.447 131.271 254.48 130.934C253.528 130.597 252.708 130.077 252.019 129.374C251.331 128.671 250.796 127.755 250.415 126.627C250.049 125.5 249.866 124.145 249.866 122.562V107.226H253.931V122.606C253.931 123.676 254.048 124.562 254.282 125.265C254.531 125.954 254.861 126.503 255.271 126.913C255.696 127.309 256.165 127.587 256.677 127.748C257.205 127.909 257.747 127.99 258.303 127.99C260.032 127.99 261.401 127.66 262.412 127.001C263.423 126.327 264.148 125.426 264.587 124.298C265.042 123.156 265.269 121.889 265.269 120.497ZM278.848 112.301V131H274.783V107.226H278.628L278.848 112.301ZM277.881 118.212L276.189 118.146C276.204 116.52 276.445 115.019 276.914 113.642C277.383 112.25 278.042 111.042 278.892 110.016C279.741 108.991 280.752 108.2 281.924 107.643C283.11 107.072 284.421 106.786 285.857 106.786C287.029 106.786 288.083 106.947 289.021 107.27C289.958 107.577 290.757 108.075 291.416 108.764C292.09 109.452 292.603 110.346 292.954 111.444C293.306 112.528 293.481 113.854 293.481 115.421V131H289.395V115.377C289.395 114.132 289.211 113.136 288.845 112.389C288.479 111.627 287.944 111.078 287.241 110.741C286.538 110.39 285.674 110.214 284.648 110.214C283.638 110.214 282.715 110.426 281.88 110.851C281.06 111.276 280.349 111.862 279.749 112.609C279.163 113.356 278.701 114.213 278.364 115.18C278.042 116.132 277.881 117.143 277.881 118.212ZM304.072 107.226V131H299.985V107.226H304.072ZM299.678 100.919C299.678 100.26 299.875 99.7036 300.271 99.2495C300.681 98.7954 301.282 98.5684 302.073 98.5684C302.849 98.5684 303.442 98.7954 303.853 99.2495C304.277 99.7036 304.49 100.26 304.49 100.919C304.49 101.549 304.277 102.091 303.853 102.545C303.442 102.985 302.849 103.205 302.073 103.205C301.282 103.205 300.681 102.985 300.271 102.545C299.875 102.091 299.678 101.549 299.678 100.919ZM320.552 107.226V110.346H307.698V107.226H320.552ZM312.048 101.447H316.113V125.111C316.113 125.917 316.238 126.525 316.487 126.935C316.736 127.345 317.058 127.616 317.454 127.748C317.849 127.88 318.274 127.946 318.728 127.946C319.065 127.946 319.417 127.917 319.783 127.858C320.164 127.785 320.449 127.726 320.64 127.682L320.662 131C320.339 131.103 319.915 131.198 319.387 131.286C318.875 131.388 318.252 131.439 317.52 131.439C316.523 131.439 315.608 131.242 314.773 130.846C313.938 130.451 313.271 129.792 312.773 128.869C312.29 127.931 312.048 126.671 312.048 125.089V101.447ZM332 128.539L338.613 107.226H342.964L333.428 134.669C333.208 135.255 332.915 135.885 332.549 136.559C332.197 137.248 331.743 137.899 331.187 138.515C330.63 139.13 329.956 139.628 329.165 140.009C328.389 140.404 327.458 140.602 326.375 140.602C326.052 140.602 325.642 140.558 325.144 140.47C324.646 140.382 324.294 140.309 324.089 140.25L324.067 136.955C324.185 136.969 324.368 136.984 324.617 136.999C324.88 137.028 325.063 137.042 325.166 137.042C326.089 137.042 326.873 136.918 327.517 136.669C328.162 136.435 328.704 136.032 329.143 135.46C329.597 134.904 329.985 134.135 330.308 133.153L332 128.539ZM327.144 107.226L333.318 125.683L334.373 129.967L331.45 131.461L322.705 107.226H327.144ZM373.198 107.226H376.89V130.495C376.89 132.589 376.465 134.376 375.615 135.856C374.766 137.335 373.579 138.456 372.056 139.218C370.547 139.994 368.804 140.382 366.826 140.382C366.006 140.382 365.039 140.25 363.926 139.987C362.827 139.738 361.743 139.306 360.674 138.69C359.619 138.09 358.733 137.277 358.015 136.251L360.146 133.834C361.143 135.036 362.183 135.871 363.267 136.339C364.365 136.808 365.449 137.042 366.519 137.042C367.808 137.042 368.921 136.801 369.858 136.317C370.796 135.834 371.521 135.116 372.034 134.164C372.561 133.227 372.825 132.069 372.825 130.692V112.455L373.198 107.226ZM356.829 119.376V118.915C356.829 117.099 357.041 115.451 357.466 113.971C357.905 112.477 358.528 111.195 359.333 110.126C360.154 109.057 361.143 108.236 362.3 107.665C363.457 107.079 364.761 106.786 366.211 106.786C367.705 106.786 369.009 107.05 370.122 107.577C371.25 108.09 372.202 108.844 372.979 109.84C373.77 110.822 374.392 112.008 374.846 113.4C375.3 114.792 375.615 116.366 375.791 118.124V120.146C375.63 121.889 375.315 123.456 374.846 124.848C374.392 126.239 373.77 127.426 372.979 128.407C372.202 129.389 371.25 130.143 370.122 130.67C368.994 131.183 367.676 131.439 366.167 131.439C364.746 131.439 363.457 131.139 362.3 130.539C361.157 129.938 360.176 129.096 359.355 128.012C358.535 126.928 357.905 125.653 357.466 124.188C357.041 122.709 356.829 121.105 356.829 119.376ZM360.894 118.915V119.376C360.894 120.563 361.011 121.676 361.245 122.716C361.494 123.756 361.868 124.672 362.366 125.463C362.878 126.254 363.53 126.876 364.321 127.331C365.112 127.77 366.057 127.99 367.156 127.99C368.503 127.99 369.617 127.704 370.496 127.133C371.375 126.562 372.07 125.807 372.583 124.87C373.11 123.932 373.521 122.914 373.813 121.815V116.52C373.652 115.714 373.403 114.938 373.066 114.191C372.744 113.429 372.319 112.755 371.792 112.169C371.279 111.569 370.642 111.093 369.88 110.741C369.119 110.39 368.225 110.214 367.2 110.214C366.086 110.214 365.127 110.448 364.321 110.917C363.53 111.371 362.878 112.001 362.366 112.807C361.868 113.598 361.494 114.521 361.245 115.575C361.011 116.615 360.894 117.729 360.894 118.915ZM397.61 125.507V107.226H401.697V131H397.808L397.61 125.507ZM398.379 120.497L400.071 120.453C400.071 122.035 399.902 123.5 399.565 124.848C399.243 126.181 398.716 127.338 397.983 128.319C397.251 129.301 396.292 130.07 395.105 130.626C393.918 131.168 392.476 131.439 390.776 131.439C389.619 131.439 388.557 131.271 387.59 130.934C386.638 130.597 385.818 130.077 385.129 129.374C384.441 128.671 383.906 127.755 383.525 126.627C383.159 125.5 382.976 124.145 382.976 122.562V107.226H387.041V122.606C387.041 123.676 387.158 124.562 387.393 125.265C387.642 125.954 387.971 126.503 388.381 126.913C388.806 127.309 389.275 127.587 389.788 127.748C390.315 127.909 390.857 127.99 391.414 127.99C393.142 127.99 394.512 127.66 395.522 127.001C396.533 126.327 397.258 125.426 397.698 124.298C398.152 123.156 398.379 121.889 398.379 120.497ZM412.31 107.226V131H408.223V107.226H412.31ZM407.915 100.919C407.915 100.26 408.113 99.7036 408.508 99.2495C408.918 98.7954 409.519 98.5684 410.31 98.5684C411.086 98.5684 411.68 98.7954 412.09 99.2495C412.515 99.7036 412.727 100.26 412.727 100.919C412.727 101.549 412.515 102.091 412.09 102.545C411.68 102.985 411.086 103.205 410.31 103.205C409.519 103.205 408.918 102.985 408.508 102.545C408.113 102.091 407.915 101.549 407.915 100.919ZM433.821 126.386V97.25H437.908V131H434.172L433.821 126.386ZM417.825 119.376V118.915C417.825 117.099 418.044 115.451 418.484 113.971C418.938 112.477 419.575 111.195 420.396 110.126C421.23 109.057 422.219 108.236 423.362 107.665C424.519 107.079 425.808 106.786 427.229 106.786C428.723 106.786 430.027 107.05 431.14 107.577C432.268 108.09 433.22 108.844 433.997 109.84C434.788 110.822 435.41 112.008 435.864 113.4C436.318 114.792 436.633 116.366 436.809 118.124V120.146C436.648 121.889 436.333 123.456 435.864 124.848C435.41 126.239 434.788 127.426 433.997 128.407C433.22 129.389 432.268 130.143 431.14 130.67C430.012 131.183 428.694 131.439 427.185 131.439C425.793 131.439 424.519 131.139 423.362 130.539C422.219 129.938 421.23 129.096 420.396 128.012C419.575 126.928 418.938 125.653 418.484 124.188C418.044 122.709 417.825 121.105 417.825 119.376ZM421.912 118.915V119.376C421.912 120.563 422.029 121.676 422.263 122.716C422.512 123.756 422.893 124.672 423.406 125.463C423.918 126.254 424.57 126.876 425.361 127.331C426.152 127.77 427.097 127.99 428.196 127.99C429.543 127.99 430.649 127.704 431.514 127.133C432.393 126.562 433.096 125.807 433.623 124.87C434.15 123.932 434.561 122.914 434.854 121.815V116.52C434.678 115.714 434.421 114.938 434.084 114.191C433.762 113.429 433.337 112.755 432.81 112.169C432.297 111.569 431.66 111.093 430.898 110.741C430.151 110.39 429.265 110.214 428.24 110.214C427.126 110.214 426.167 110.448 425.361 110.917C424.57 111.371 423.918 112.001 423.406 112.807C422.893 113.598 422.512 114.521 422.263 115.575C422.029 116.615 421.912 117.729 421.912 118.915ZM454.102 131.439C452.446 131.439 450.945 131.161 449.597 130.604C448.264 130.033 447.114 129.235 446.147 128.209C445.195 127.184 444.463 125.968 443.95 124.562C443.438 123.156 443.181 121.618 443.181 119.948V119.025C443.181 117.091 443.467 115.37 444.038 113.861C444.609 112.338 445.386 111.049 446.367 109.994C447.349 108.939 448.462 108.141 449.707 107.599C450.952 107.057 452.241 106.786 453.574 106.786C455.273 106.786 456.738 107.079 457.969 107.665C459.214 108.251 460.232 109.071 461.023 110.126C461.814 111.166 462.4 112.396 462.781 113.817C463.162 115.224 463.352 116.762 463.352 118.432V120.255H445.598V116.938H459.287V116.63C459.229 115.575 459.009 114.55 458.628 113.554C458.262 112.558 457.676 111.737 456.87 111.093C456.064 110.448 454.966 110.126 453.574 110.126C452.651 110.126 451.802 110.324 451.025 110.719C450.249 111.1 449.583 111.671 449.026 112.433C448.469 113.195 448.037 114.125 447.729 115.224C447.422 116.322 447.268 117.589 447.268 119.025V119.948C447.268 121.076 447.422 122.138 447.729 123.134C448.052 124.115 448.513 124.979 449.114 125.727C449.729 126.474 450.469 127.06 451.333 127.484C452.212 127.909 453.208 128.122 454.321 128.122C455.757 128.122 456.973 127.829 457.969 127.243C458.965 126.657 459.836 125.873 460.583 124.892L463.044 126.847C462.532 127.624 461.88 128.363 461.089 129.066C460.298 129.77 459.324 130.341 458.167 130.78C457.024 131.22 455.669 131.439 454.102 131.439Z" fill="#868686"/>
<path d="M463.683 89.5742L462.081 84.8496C464.964 83.8887 467.033 82.207 468.287 79.8047C469.542 77.429 470.169 74.4795 470.169 70.9561V62.748C470.169 59.8919 470.77 57.3962 471.971 55.2607C473.172 53.1253 475.027 51.4837 477.536 50.3359C475.027 49.2415 473.172 47.6266 471.971 45.4912C470.77 43.3558 470.169 40.8333 470.169 37.9238V29.6758C470.169 26.1523 469.542 23.1895 468.287 20.7871C467.033 18.3581 464.964 16.6764 462.081 15.7422L463.683 11.0576C468.861 12.5257 472.545 14.8613 474.733 18.0645C476.949 21.2409 478.057 25.1113 478.057 29.6758V37.9238C478.057 40.9401 478.737 43.2757 480.099 44.9307C481.46 46.5589 483.569 47.373 486.425 47.373V53.2588C483.569 53.2588 481.46 54.0996 480.099 55.7812C478.737 57.4362 478.057 59.7585 478.057 62.748V70.9561C478.057 75.4938 476.949 79.3643 474.733 82.5674C472.545 85.7705 468.861 88.1061 463.683 89.5742Z" fill="#F37726"/>
<path d="M329.429 69.564C325.687 69.564 322.876 68.1317 320.997 65.2671L320.513 69H315.948V31.2681L311.57 30.5161V27.1055H321.238V43.3799C322.151 42.0908 323.279 41.1061 324.622 40.4258C325.983 39.7454 327.567 39.4053 329.375 39.4053C331.775 39.4053 333.816 40.0588 335.499 41.3657C337.199 42.6548 338.497 44.472 339.393 46.8174C340.306 49.1628 340.762 51.8931 340.762 55.0083V55.5723C340.762 58.3652 340.306 60.8091 339.393 62.9038C338.497 64.9985 337.199 66.6367 335.499 67.8184C333.816 68.9821 331.792 69.564 329.429 69.564ZM328.086 65.2671C330.575 65.2671 332.419 64.3809 333.619 62.6084C334.836 60.8359 335.445 58.4906 335.445 55.5723V55.0083C335.445 51.6603 334.836 48.939 333.619 46.8442C332.401 44.7495 330.539 43.7021 328.033 43.7021C326.403 43.7021 325.025 44.096 323.897 44.8838C322.787 45.6715 321.901 46.7279 321.238 48.0527V60.8896C321.901 62.2324 322.796 63.2977 323.924 64.0854C325.07 64.8732 326.457 65.2671 328.086 65.2671ZM358.97 69.564C356.285 69.564 353.966 68.9373 352.015 67.6841C350.081 66.4129 348.586 64.6673 347.53 62.4473C346.473 60.2093 345.945 57.658 345.945 54.7935V54.2026C345.945 51.3381 346.473 48.7957 347.53 46.5757C348.586 44.3377 350.081 42.5832 352.015 41.312C353.966 40.0409 356.267 39.4053 358.917 39.4053C361.602 39.4053 363.912 40.0409 365.845 41.312C367.797 42.5832 369.301 44.3288 370.357 46.5488C371.413 48.7689 371.941 51.3201 371.941 54.2026V54.7935C371.941 57.6759 371.413 60.2362 370.357 62.4741C369.301 64.6942 367.806 66.4308 365.872 67.6841C363.938 68.9373 361.638 69.564 358.97 69.564ZM358.97 65.4282C361.477 65.4282 363.383 64.4256 364.69 62.4204C365.997 60.4152 366.651 57.8729 366.651 54.7935V54.2026C366.651 52.1616 366.355 50.3444 365.765 48.751C365.192 47.1396 364.332 45.8774 363.187 44.9644C362.041 44.0334 360.617 43.5679 358.917 43.5679C357.234 43.5679 355.819 44.0334 354.673 44.9644C353.528 45.8774 352.668 47.1396 352.095 48.751C351.522 50.3444 351.236 52.1616 351.236 54.2026V54.7935C351.236 57.8729 351.88 60.4152 353.169 62.4204C354.476 64.4256 356.41 65.4282 358.97 65.4282ZM390.123 69.564C387.437 69.564 385.118 68.9373 383.167 67.6841C381.233 66.4129 379.738 64.6673 378.682 62.4473C377.626 60.2093 377.098 57.658 377.098 54.7935V54.2026C377.098 51.3381 377.626 48.7957 378.682 46.5757C379.738 44.3377 381.233 42.5832 383.167 41.312C385.118 40.0409 387.419 39.4053 390.069 39.4053C392.754 39.4053 395.064 40.0409 396.998 41.312C398.949 42.5832 400.453 44.3288 401.509 46.5488C402.566 48.7689 403.094 51.3201 403.094 54.2026V54.7935C403.094 57.6759 402.566 60.2362 401.509 62.4741C400.453 64.6942 398.958 66.4308 397.024 67.6841C395.091 68.9373 392.79 69.564 390.123 69.564ZM390.123 65.4282C392.629 65.4282 394.536 64.4256 395.843 62.4204C397.15 60.4152 397.803 57.8729 397.803 54.7935V54.2026C397.803 52.1616 397.508 50.3444 396.917 48.751C396.344 47.1396 395.485 45.8774 394.339 44.9644C393.193 44.0334 391.77 43.5679 390.069 43.5679C388.386 43.5679 386.972 44.0334 385.826 44.9644C384.68 45.8774 383.82 47.1396 383.248 48.751C382.675 50.3444 382.388 52.1616 382.388 54.2026V54.7935C382.388 57.8729 383.033 60.4152 384.322 62.4204C385.629 64.4256 387.562 65.4282 390.123 65.4282ZM406.37 69V65.6162L410.748 64.8643V31.2681L406.37 30.5161V27.1055H416.038V54.0952L426.324 43.8633L426.458 43.7021L423.343 43.353V39.9424H435.857V43.353L432.125 44.0513L423.96 52.269L433.978 64.9717L438.167 65.6162V69H425.035V65.6162L427.989 65.2671L427.908 65.1597L420.55 55.6797L416.038 60.2183V64.8643L420.416 65.6162V69H406.37ZM452.991 69.564C451.04 69.564 449.214 69.367 447.513 68.9731C445.812 68.5793 444.004 67.9705 442.088 67.147L442.034 60.2451H446.036L447.029 64.4077C448.927 65.1955 450.914 65.5894 452.991 65.5894C455.14 65.5894 456.679 65.1776 457.61 64.354C458.541 63.5304 459.007 62.5099 459.007 61.2925C459.007 60.1466 458.532 59.1799 457.583 58.3921C456.653 57.5864 454.952 56.9061 452.481 56.3511C448.972 55.5454 446.385 54.4712 444.72 53.1284C443.073 51.7677 442.249 49.9595 442.249 47.7036C442.249 46.1281 442.706 44.7227 443.619 43.4873C444.532 42.234 445.803 41.2404 447.432 40.5063C449.061 39.7723 450.959 39.4053 453.125 39.4053C455.328 39.4053 457.208 39.6559 458.765 40.1572C460.341 40.6585 461.71 41.3299 462.874 42.1714L463.143 48.8047H459.168L458.309 44.9375C457.682 44.472 456.939 44.1139 456.08 43.8633C455.22 43.6126 454.236 43.4873 453.125 43.4873C451.478 43.4873 450.136 43.8722 449.097 44.6421C448.077 45.4119 447.566 46.3787 447.566 47.5425C447.566 48.2228 447.71 48.8136 447.996 49.3149C448.3 49.8162 448.873 50.2728 449.715 50.6846C450.556 51.0785 451.792 51.4723 453.421 51.8662C457.467 52.8151 460.287 54.0236 461.88 55.4917C463.492 56.9598 464.297 58.7681 464.297 60.9165C464.297 63.3693 463.384 65.4282 461.558 67.0933C459.75 68.7404 456.894 69.564 452.991 69.564Z" fill="#616161"/>
<path d="M312.265 89.5742C307.06 88.1061 303.349 85.7705 301.134 82.5674C298.945 79.3643 297.851 75.4938 297.851 70.9561V62.748C297.851 59.7585 297.17 57.4362 295.809 55.7812C294.447 54.0996 292.352 53.2588 289.522 53.2588V47.373C292.352 47.373 294.447 46.5589 295.809 44.9307C297.17 43.2757 297.851 40.9401 297.851 37.9238V29.6758C297.851 25.1113 298.945 21.2409 301.134 18.0645C303.349 14.8613 307.06 12.5257 312.265 11.0576L313.866 15.7422C310.93 16.6764 308.835 18.3581 307.58 20.7871C306.352 23.1895 305.738 26.1523 305.738 29.6758V37.9238C305.738 40.7266 305.178 43.1956 304.057 45.3311C302.936 47.4665 301.241 49.1348 298.972 50.3359C301.241 51.5638 302.936 53.2588 304.057 55.4209C305.178 57.5563 305.738 59.9987 305.738 62.748V70.9561C305.738 74.4795 306.352 77.429 307.58 79.8047C308.835 82.207 310.93 83.8887 313.866 84.8496L312.265 89.5742Z" fill="#F37726"/>
<path d="M21.2271 68.564C18.5415 68.564 16.2051 67.9552 14.2178 66.7378C12.2305 65.5024 10.6908 63.7926 9.59863 61.6084C8.52441 59.4242 7.9873 56.8997 7.9873 54.0352V52.8535C7.9873 50.0964 8.55127 47.6346 9.6792 45.4683C10.825 43.284 12.3379 41.5653 14.2178 40.312C16.1156 39.0409 18.1834 38.4053 20.4214 38.4053C23.0353 38.4053 25.2196 38.9424 26.9741 40.0166C28.7466 41.0908 30.0804 42.6037 30.9756 44.5552C31.8708 46.4888 32.3184 48.7715 32.3184 51.4033V54.7065H13.4658L13.3853 54.8408C13.4211 56.7028 13.7433 58.3589 14.3521 59.8091C14.9787 61.2414 15.8739 62.3693 17.0376 63.1929C18.2013 64.0164 19.5978 64.4282 21.2271 64.4282C23.0174 64.4282 24.584 64.1776 25.9268 63.6763C27.2874 63.1571 28.4601 62.4499 29.4448 61.5547L31.5127 64.9922C30.4743 65.9948 29.0957 66.8452 27.377 67.5435C25.6761 68.2238 23.6261 68.564 21.2271 68.564ZM13.627 50.5708H27.0278V49.8726C27.0278 48.4761 26.7772 47.2318 26.2759 46.1396C25.7925 45.0296 25.0584 44.1613 24.0737 43.5347C23.1069 42.8901 21.8895 42.5679 20.4214 42.5679C19.2397 42.5679 18.1655 42.917 17.1987 43.6152C16.2319 44.2956 15.4352 45.2266 14.8086 46.4082C14.182 47.5898 13.7702 48.9326 13.5732 50.4365L13.627 50.5708ZM35.5947 68V64.6162L38.8174 63.9985L47.4917 53.3101L39.0054 42.9707L36.1318 42.353V38.9424H47.5186V42.353L44.6182 42.6753L50.5801 50.0874L56.3809 42.6484L53.2656 42.353V38.9424H64.4644V42.353L61.5103 42.9707L53.6416 53.2295L62.6919 63.9985L65.6997 64.6162V68H53.373V64.6162L56.8643 64.3208L50.4995 56.5596L44.3228 64.3208L47.4648 64.6162V68H35.5947ZM81.4907 68.564C78.8052 68.564 76.4688 67.9552 74.4814 66.7378C72.4941 65.5024 70.9544 63.7926 69.8623 61.6084C68.7881 59.4242 68.251 56.8997 68.251 54.0352V52.8535C68.251 50.0964 68.8149 47.6346 69.9429 45.4683C71.0887 43.284 72.6016 41.5653 74.4814 40.312C76.3792 39.0409 78.4471 38.4053 80.6851 38.4053C83.299 38.4053 85.4832 38.9424 87.2378 40.0166C89.0103 41.0908 90.3441 42.6037 91.2393 44.5552C92.1344 46.4888 92.582 48.7715 92.582 51.4033V54.7065H73.7295L73.6489 54.8408C73.6847 56.7028 74.007 58.3589 74.6157 59.8091C75.2424 61.2414 76.1375 62.3693 77.3013 63.1929C78.465 64.0164 79.8615 64.4282 81.4907 64.4282C83.2811 64.4282 84.8477 64.1776 86.1904 63.6763C87.5511 63.1571 88.7238 62.4499 89.7085 61.5547L91.7764 64.9922C90.738 65.9948 89.3594 66.8452 87.6406 67.5435C85.9398 68.2238 83.8898 68.564 81.4907 68.564ZM73.8906 50.5708H87.2915V49.8726C87.2915 48.4761 87.0409 47.2318 86.5396 46.1396C86.0562 45.0296 85.3221 44.1613 84.3374 43.5347C83.3706 42.8901 82.1532 42.5679 80.6851 42.5679C79.5034 42.5679 78.4292 42.917 77.4624 43.6152C76.4956 44.2956 75.6989 45.2266 75.0723 46.4082C74.4456 47.5898 74.0339 48.9326 73.8369 50.4365L73.8906 50.5708ZM110.924 68.564C108.292 68.564 106.001 67.9552 104.049 66.7378C102.098 65.5024 100.585 63.7926 99.5107 61.6084C98.4365 59.4242 97.8994 56.8997 97.8994 54.0352V52.9072C97.8994 50.1501 98.4186 47.6794 99.457 45.4951C100.495 43.3109 101.99 41.5832 103.942 40.312C105.893 39.0409 108.221 38.4053 110.924 38.4053C113.27 38.4053 115.32 38.7902 117.074 39.5601C118.847 40.3299 120.333 41.3862 121.532 42.729L121.667 49.7114H117.531L116.618 44.6357C116.009 44.0091 115.248 43.5078 114.335 43.1318C113.422 42.7559 112.348 42.5679 111.112 42.5679C109.537 42.5679 108.149 43.0334 106.95 43.9644C105.768 44.8953 104.846 46.1396 104.184 47.6973C103.521 49.2549 103.19 50.9915 103.19 52.9072V54.0352C103.19 56.1478 103.494 57.9829 104.103 59.5405C104.73 61.0981 105.616 62.3066 106.762 63.166C107.925 64.0075 109.304 64.4282 110.897 64.4282C112.688 64.4282 114.174 63.9359 115.355 62.9512C116.537 61.9665 117.262 60.6147 117.531 58.896H122.284L122.338 59.0571C122.248 60.7222 121.756 62.2798 120.861 63.73C119.966 65.1802 118.686 66.3529 117.021 67.248C115.373 68.1253 113.341 68.564 110.924 68.564ZM139.257 68.564C136.106 68.564 133.644 67.5524 131.872 65.5293C130.099 63.5062 129.213 60.3551 129.213 56.0762V43.105L125.883 42.353V38.9424H129.213H134.503V56.1299C134.503 59.2272 134.96 61.3577 135.873 62.5215C136.786 63.6852 138.209 64.2671 140.143 64.2671C142.023 64.2671 143.572 63.8911 144.789 63.1392C146.024 62.3693 146.955 61.2861 147.582 59.8896V43.105L143.688 42.353V38.9424H147.582H152.873V63.8643L156.203 64.6162V68H148.119L147.77 63.7031C146.857 65.2607 145.675 66.4603 144.225 67.3018C142.793 68.1432 141.137 68.564 139.257 68.564ZM170.194 68.4565C168.046 68.4565 166.336 67.8299 165.065 66.5767C163.812 65.3055 163.185 63.2824 163.185 60.5073V42.8633H158.593V38.9424H163.185V31.9331H168.476V38.9424H174.787V42.8633H168.476V60.5073C168.476 61.9038 168.753 62.9333 169.308 63.5957C169.863 64.2581 170.606 64.5894 171.537 64.5894C172.164 64.5894 172.862 64.5356 173.632 64.4282C174.402 64.3029 175.001 64.1955 175.431 64.106L176.156 67.5703C175.386 67.8031 174.438 68.009 173.31 68.188C172.2 68.367 171.161 68.4565 170.194 68.4565ZM188.939 68.564C185.914 68.564 183.613 67.8299 182.038 66.3618C180.462 64.8758 179.674 62.79 179.674 60.1045C179.674 58.2604 180.176 56.658 181.178 55.2974C182.199 53.9188 183.667 52.8535 185.583 52.1016C187.498 51.3317 189.79 50.9468 192.458 50.9468H197.641V48.1001C197.641 46.3455 197.104 44.9849 196.029 44.0181C194.973 43.0513 193.478 42.5679 191.544 42.5679C190.327 42.5679 189.271 42.7201 188.375 43.0244C187.48 43.3109 186.666 43.7137 185.932 44.2329L185.368 48.2881H181.286V41.6279C182.593 40.5716 184.114 39.7749 185.851 39.2378C187.588 38.6828 189.512 38.4053 191.625 38.4053C195.152 38.4053 197.918 39.2467 199.923 40.9297C201.929 42.6126 202.931 45.0207 202.931 48.1538V62.1455C202.931 62.5215 202.931 62.8885 202.931 63.2466C202.949 63.6047 202.976 63.9627 203.012 64.3208L205.832 64.6162V68H198.231C198.07 67.2122 197.945 66.505 197.855 65.8784C197.766 65.2518 197.703 64.6252 197.667 63.9985C196.647 65.3055 195.367 66.3976 193.827 67.2749C192.305 68.1343 190.676 68.564 188.939 68.564ZM189.718 64.1328C191.473 64.1328 193.075 63.7121 194.525 62.8706C195.976 62.0291 197.014 61.0176 197.641 59.8359V54.5723H192.27C189.835 54.5723 188.008 55.1541 186.791 56.3179C185.574 57.4816 184.965 58.7796 184.965 60.2119C184.965 61.4831 185.359 62.4588 186.146 63.1392C186.934 63.8016 188.125 64.1328 189.718 64.1328ZM225.382 68.564C223.485 68.564 221.837 68.2059 220.441 67.4897C219.044 66.7557 217.881 65.6815 216.95 64.2671L216.466 68H211.901V30.2681L207.523 29.5161V26.1055H217.191V42.3799C218.104 41.0908 219.232 40.1061 220.575 39.4258C221.936 38.7454 223.52 38.4053 225.329 38.4053C227.728 38.4053 229.769 39.0588 231.452 40.3657C233.153 41.6548 234.451 43.472 235.346 45.8174C236.259 48.1628 236.715 50.8931 236.715 54.0083V54.5723C236.715 57.3652 236.259 59.8091 235.346 61.9038C234.451 63.9985 233.153 65.6367 231.452 66.8184C229.769 67.9821 227.746 68.564 225.382 68.564ZM224.04 64.2671C226.528 64.2671 228.372 63.3809 229.572 61.6084C230.789 59.8359 231.398 57.4906 231.398 54.5723V54.0083C231.398 51.7703 231.129 49.8099 230.592 48.127C230.055 46.4261 229.241 45.1012 228.148 44.1523C227.056 43.1855 225.669 42.7021 223.986 42.7021C222.357 42.7021 220.978 43.096 219.85 43.8838C218.74 44.6715 217.854 45.7279 217.191 47.0527V59.8896C217.854 61.2324 218.749 62.2977 219.877 63.0854C221.023 63.8732 222.41 64.2671 224.04 64.2671ZM240.18 68V64.6162L244.557 63.8643V30.2681L240.18 29.5161V26.1055H249.848V63.8643L254.225 64.6162V68H240.18ZM270.714 68.564C268.029 68.564 265.692 67.9552 263.705 66.7378C261.718 65.5024 260.178 63.7926 259.086 61.6084C258.012 59.4242 257.475 56.8997 257.475 54.0352V52.8535C257.475 50.0964 258.039 47.6346 259.167 45.4683C260.312 43.284 261.825 41.5653 263.705 40.312C265.603 39.0409 267.671 38.4053 269.909 38.4053C272.523 38.4053 274.707 38.9424 276.461 40.0166C278.234 41.0908 279.568 42.6037 280.463 44.5552C281.358 46.4888 281.806 48.7715 281.806 51.4033V54.7065H262.953L262.873 54.8408C262.908 56.7028 263.231 58.3589 263.839 59.8091C264.466 61.2414 265.361 62.3693 266.525 63.1929C267.689 64.0164 269.085 64.4282 270.714 64.4282C272.505 64.4282 274.071 64.1776 275.414 63.6763C276.775 63.1571 277.947 62.4499 278.932 61.5547L281 64.9922C279.962 65.9948 278.583 66.8452 276.864 67.5435C275.163 68.2238 273.113 68.564 270.714 68.564ZM263.114 50.5708H276.515V49.8726C276.515 48.4761 276.264 47.2318 275.763 46.1396C275.28 45.0296 274.546 44.1613 273.561 43.5347C272.594 42.8901 271.377 42.5679 269.909 42.5679C268.727 42.5679 267.653 42.917 266.686 43.6152C265.719 44.2956 264.923 45.2266 264.296 46.4082C263.669 47.5898 263.257 48.9326 263.061 50.4365L263.114 50.5708Z" fill="#616161"/>
<path d="M21.2271 68.564C18.5415 68.564 16.2051 67.9552 14.2178 66.7378C12.2305 65.5024 10.6908 63.7926 9.59863 61.6084C8.52441 59.4242 7.9873 56.8997 7.9873 54.0352V52.8535C7.9873 50.0964 8.55127 47.6346 9.6792 45.4683C10.825 43.284 12.3379 41.5653 14.2178 40.312C16.1156 39.0409 18.1834 38.4053 20.4214 38.4053C23.0353 38.4053 25.2196 38.9424 26.9741 40.0166C28.7466 41.0908 30.0804 42.6037 30.9756 44.5552C31.8708 46.4888 32.3184 48.7715 32.3184 51.4033V54.7065H13.4658L13.3853 54.8408C13.4211 56.7028 13.7433 58.3589 14.3521 59.8091C14.9787 61.2414 15.8739 62.3693 17.0376 63.1929C18.2013 64.0164 19.5978 64.4282 21.2271 64.4282C23.0174 64.4282 24.584 64.1776 25.9268 63.6763C27.2874 63.1571 28.4601 62.4499 29.4448 61.5547L31.5127 64.9922C30.4743 65.9948 29.0957 66.8452 27.377 67.5435C25.6761 68.2238 23.6261 68.564 21.2271 68.564ZM13.627 50.5708H27.0278V49.8726C27.0278 48.4761 26.7772 47.2318 26.2759 46.1396C25.7925 45.0296 25.0584 44.1613 24.0737 43.5347C23.1069 42.8901 21.8895 42.5679 20.4214 42.5679C19.2397 42.5679 18.1655 42.917 17.1987 43.6152C16.2319 44.2956 15.4352 45.2266 14.8086 46.4082C14.182 47.5898 13.7702 48.9326 13.5732 50.4365L13.627 50.5708ZM35.5947 68V64.6162L38.8174 63.9985L47.4917 53.3101L39.0054 42.9707L36.1318 42.353V38.9424H47.5186V42.353L44.6182 42.6753L50.5801 50.0874L56.3809 42.6484L53.2656 42.353V38.9424H64.4644V42.353L61.5103 42.9707L53.6416 53.2295L62.6919 63.9985L65.6997 64.6162V68H53.373V64.6162L56.8643 64.3208L50.4995 56.5596L44.3228 64.3208L47.4648 64.6162V68H35.5947ZM81.4907 68.564C78.8052 68.564 76.4688 67.9552 74.4814 66.7378C72.4941 65.5024 70.9544 63.7926 69.8623 61.6084C68.7881 59.4242 68.251 56.8997 68.251 54.0352V52.8535C68.251 50.0964 68.8149 47.6346 69.9429 45.4683C71.0887 43.284 72.6016 41.5653 74.4814 40.312C76.3792 39.0409 78.4471 38.4053 80.6851 38.4053C83.299 38.4053 85.4832 38.9424 87.2378 40.0166C89.0103 41.0908 90.3441 42.6037 91.2393 44.5552C92.1344 46.4888 92.582 48.7715 92.582 51.4033V54.7065H73.7295L73.6489 54.8408C73.6847 56.7028 74.007 58.3589 74.6157 59.8091C75.2424 61.2414 76.1375 62.3693 77.3013 63.1929C78.465 64.0164 79.8615 64.4282 81.4907 64.4282C83.2811 64.4282 84.8477 64.1776 86.1904 63.6763C87.5511 63.1571 88.7238 62.4499 89.7085 61.5547L91.7764 64.9922C90.738 65.9948 89.3594 66.8452 87.6406 67.5435C85.9398 68.2238 83.8898 68.564 81.4907 68.564ZM73.8906 50.5708H87.2915V49.8726C87.2915 48.4761 87.0409 47.2318 86.5396 46.1396C86.0562 45.0296 85.3221 44.1613 84.3374 43.5347C83.3706 42.8901 82.1532 42.5679 80.6851 42.5679C79.5034 42.5679 78.4292 42.917 77.4624 43.6152C76.4956 44.2956 75.6989 45.2266 75.0723 46.4082C74.4456 47.5898 74.0339 48.9326 73.8369 50.4365L73.8906 50.5708ZM110.924 68.564C108.292 68.564 106.001 67.9552 104.049 66.7378C102.098 65.5024 100.585 63.7926 99.5107 61.6084C98.4365 59.4242 97.8994 56.8997 97.8994 54.0352V52.9072C97.8994 50.1501 98.4186 47.6794 99.457 45.4951C100.495 43.3109 101.99 41.5832 103.942 40.312C105.893 39.0409 108.221 38.4053 110.924 38.4053C113.27 38.4053 115.32 38.7902 117.074 39.5601C118.847 40.3299 120.333 41.3862 121.532 42.729L121.667 49.7114H117.531L116.618 44.6357C116.009 44.0091 115.248 43.5078 114.335 43.1318C113.422 42.7559 112.348 42.5679 111.112 42.5679C109.537 42.5679 108.149 43.0334 106.95 43.9644C105.768 44.8953 104.846 46.1396 104.184 47.6973C103.521 49.2549 103.19 50.9915 103.19 52.9072V54.0352C103.19 56.1478 103.494 57.9829 104.103 59.5405C104.73 61.0981 105.616 62.3066 106.762 63.166C107.925 64.0075 109.304 64.4282 110.897 64.4282C112.688 64.4282 114.174 63.9359 115.355 62.9512C116.537 61.9665 117.262 60.6147 117.531 58.896H122.284L122.338 59.0571C122.248 60.7222 121.756 62.2798 120.861 63.73C119.966 65.1802 118.686 66.3529 117.021 67.248C115.373 68.1253 113.341 68.564 110.924 68.564ZM139.257 68.564C136.106 68.564 133.644 67.5524 131.872 65.5293C130.099 63.5062 129.213 60.3551 129.213 56.0762V43.105L125.883 42.353V38.9424H129.213H134.503V56.1299C134.503 59.2272 134.96 61.3577 135.873 62.5215C136.786 63.6852 138.209 64.2671 140.143 64.2671C142.023 64.2671 143.572 63.8911 144.789 63.1392C146.024 62.3693 146.955 61.2861 147.582 59.8896V43.105L143.688 42.353V38.9424H147.582H152.873V63.8643L156.203 64.6162V68H148.119L147.77 63.7031C146.857 65.2607 145.675 66.4603 144.225 67.3018C142.793 68.1432 141.137 68.564 139.257 68.564ZM170.194 68.4565C168.046 68.4565 166.336 67.8299 165.065 66.5767C163.812 65.3055 163.185 63.2824 163.185 60.5073V42.8633H158.593V38.9424H163.185V31.9331H168.476V38.9424H174.787V42.8633H168.476V60.5073C168.476 61.9038 168.753 62.9333 169.308 63.5957C169.863 64.2581 170.606 64.5894 171.537 64.5894C172.164 64.5894 172.862 64.5356 173.632 64.4282C174.402 64.3029 175.001 64.1955 175.431 64.106L176.156 67.5703C175.386 67.8031 174.438 68.009 173.31 68.188C172.2 68.367 171.161 68.4565 170.194 68.4565ZM188.939 68.564C185.914 68.564 183.613 67.8299 182.038 66.3618C180.462 64.8758 179.674 62.79 179.674 60.1045C179.674 58.2604 180.176 56.658 181.178 55.2974C182.199 53.9188 183.667 52.8535 185.583 52.1016C187.498 51.3317 189.79 50.9468 192.458 50.9468H197.641V48.1001C197.641 46.3455 197.104 44.9849 196.029 44.0181C194.973 43.0513 193.478 42.5679 191.544 42.5679C190.327 42.5679 189.271 42.7201 188.375 43.0244C187.48 43.3109 186.666 43.7137 185.932 44.2329L185.368 48.2881H181.286V41.6279C182.593 40.5716 184.114 39.7749 185.851 39.2378C187.588 38.6828 189.512 38.4053 191.625 38.4053C195.152 38.4053 197.918 39.2467 199.923 40.9297C201.929 42.6126 202.931 45.0207 202.931 48.1538V62.1455C202.931 62.5215 202.931 62.8885 202.931 63.2466C202.949 63.6047 202.976 63.9627 203.012 64.3208L205.832 64.6162V68H198.231C198.07 67.2122 197.945 66.505 197.855 65.8784C197.766 65.2518 197.703 64.6252 197.667 63.9985C196.647 65.3055 195.367 66.3976 193.827 67.2749C192.305 68.1343 190.676 68.564 188.939 68.564ZM189.718 64.1328C191.473 64.1328 193.075 63.7121 194.525 62.8706C195.976 62.0291 197.014 61.0176 197.641 59.8359V54.5723H192.27C189.835 54.5723 188.008 55.1541 186.791 56.3179C185.574 57.4816 184.965 58.7796 184.965 60.2119C184.965 61.4831 185.359 62.4588 186.146 63.1392C186.934 63.8016 188.125 64.1328 189.718 64.1328ZM225.382 68.564C223.485 68.564 221.837 68.2059 220.441 67.4897C219.044 66.7557 217.881 65.6815 216.95 64.2671L216.466 68H211.901V30.2681L207.523 29.5161V26.1055H217.191V42.3799C218.104 41.0908 219.232 40.1061 220.575 39.4258C221.936 38.7454 223.52 38.4053 225.329 38.4053C227.728 38.4053 229.769 39.0588 231.452 40.3657C233.153 41.6548 234.451 43.472 235.346 45.8174C236.259 48.1628 236.715 50.8931 236.715 54.0083V54.5723C236.715 57.3652 236.259 59.8091 235.346 61.9038C234.451 63.9985 233.153 65.6367 231.452 66.8184C229.769 67.9821 227.746 68.564 225.382 68.564ZM224.04 64.2671C226.528 64.2671 228.372 63.3809 229.572 61.6084C230.789 59.8359 231.398 57.4906 231.398 54.5723V54.0083C231.398 51.7703 231.129 49.8099 230.592 48.127C230.055 46.4261 229.241 45.1012 228.148 44.1523C227.056 43.1855 225.669 42.7021 223.986 42.7021C222.357 42.7021 220.978 43.096 219.85 43.8838C218.74 44.6715 217.854 45.7279 217.191 47.0527V59.8896C217.854 61.2324 218.749 62.2977 219.877 63.0854C221.023 63.8732 222.41 64.2671 224.04 64.2671ZM240.18 68V64.6162L244.557 63.8643V30.2681L240.18 29.5161V26.1055H249.848V63.8643L254.225 64.6162V68H240.18ZM270.714 68.564C268.029 68.564 265.692 67.9552 263.705 66.7378C261.718 65.5024 260.178 63.7926 259.086 61.6084C258.012 59.4242 257.475 56.8997 257.475 54.0352V52.8535C257.475 50.0964 258.039 47.6346 259.167 45.4683C260.312 43.284 261.825 41.5653 263.705 40.312C265.603 39.0409 267.671 38.4053 269.909 38.4053C272.523 38.4053 274.707 38.9424 276.461 40.0166C278.234 41.0908 279.568 42.6037 280.463 44.5552C281.358 46.4888 281.806 48.7715 281.806 51.4033V54.7065H262.953L262.873 54.8408C262.908 56.7028 263.231 58.3589 263.839 59.8091C264.466 61.2414 265.361 62.3693 266.525 63.1929C267.689 64.0164 269.085 64.4282 270.714 64.4282C272.505 64.4282 274.071 64.1776 275.414 63.6763C276.775 63.1571 277.947 62.4499 278.932 61.5547L281 64.9922C279.962 65.9948 278.583 66.8452 276.864 67.5435C275.163 68.2238 273.113 68.564 270.714 68.564ZM263.114 50.5708H276.515V49.8726C276.515 48.4761 276.264 47.2318 275.763 46.1396C275.28 45.0296 274.546 44.1613 273.561 43.5347C272.594 42.8901 271.377 42.5679 269.909 42.5679C268.727 42.5679 267.653 42.917 266.686 43.6152C265.719 44.2956 264.923 45.2266 264.296 46.4082C263.669 47.5898 263.257 48.9326 263.061 50.4365L263.114 50.5708Z" fill="#616161"/>
</svg>
