<svg width="495" height="100" viewBox="0 0 495 100" fill="none" xmlns="http://www.w3.org/2000/svg">
<path d="M463.683 89.5742L462.081 84.8496C464.964 83.8887 467.033 82.207 468.287 79.8047C469.542 77.429 470.169 74.4795 470.169 70.9561V62.748C470.169 59.8919 470.77 57.3962 471.971 55.2607C473.172 53.1253 475.027 51.4837 477.536 50.3359C475.027 49.2415 473.172 47.6266 471.971 45.4912C470.77 43.3558 470.169 40.8333 470.169 37.9238V29.6758C470.169 26.1523 469.542 23.1895 468.287 20.7871C467.033 18.3581 464.964 16.6764 462.081 15.7422L463.683 11.0576C468.861 12.5257 472.545 14.8613 474.733 18.0645C476.949 21.2409 478.057 25.1113 478.057 29.6758V37.9238C478.057 40.9401 478.737 43.2757 480.099 44.9307C481.46 46.5589 483.569 47.373 486.425 47.373V53.2588C483.569 53.2588 481.46 54.0996 480.099 55.7812C478.737 57.4362 478.057 59.7585 478.057 62.748V70.9561C478.057 75.4938 476.949 79.3643 474.733 82.5674C472.545 85.7705 468.861 88.1061 463.683 89.5742Z" fill="#F37726"/>
<path d="M329.429 69.564C325.687 69.564 322.876 68.1317 320.997 65.2671L320.513 69H315.948V31.2681L311.57 30.5161V27.1055H321.238V43.3799C322.151 42.0908 323.279 41.1061 324.622 40.4258C325.983 39.7454 327.567 39.4053 329.375 39.4053C331.775 39.4053 333.816 40.0588 335.499 41.3657C337.199 42.6548 338.497 44.472 339.393 46.8174C340.306 49.1628 340.762 51.8931 340.762 55.0083V55.5723C340.762 58.3652 340.306 60.8091 339.393 62.9038C338.497 64.9985 337.199 66.6367 335.499 67.8184C333.816 68.9821 331.792 69.564 329.429 69.564ZM328.086 65.2671C330.575 65.2671 332.419 64.3809 333.619 62.6084C334.836 60.8359 335.445 58.4906 335.445 55.5723V55.0083C335.445 51.6603 334.836 48.939 333.619 46.8442C332.401 44.7495 330.539 43.7021 328.033 43.7021C326.403 43.7021 325.025 44.096 323.897 44.8838C322.787 45.6715 321.901 46.7279 321.238 48.0527V60.8896C321.901 62.2324 322.796 63.2977 323.924 64.0854C325.07 64.8732 326.457 65.2671 328.086 65.2671ZM358.97 69.564C356.285 69.564 353.966 68.9373 352.015 67.6841C350.081 66.4129 348.586 64.6673 347.53 62.4473C346.473 60.2093 345.945 57.658 345.945 54.7935V54.2026C345.945 51.3381 346.473 48.7957 347.53 46.5757C348.586 44.3377 350.081 42.5832 352.015 41.312C353.966 40.0409 356.267 39.4053 358.917 39.4053C361.602 39.4053 363.912 40.0409 365.845 41.312C367.797 42.5832 369.301 44.3288 370.357 46.5488C371.413 48.7689 371.941 51.3201 371.941 54.2026V54.7935C371.941 57.6759 371.413 60.2362 370.357 62.4741C369.301 64.6942 367.806 66.4308 365.872 67.6841C363.938 68.9373 361.638 69.564 358.97 69.564ZM358.97 65.4282C361.477 65.4282 363.383 64.4256 364.69 62.4204C365.997 60.4152 366.651 57.8729 366.651 54.7935V54.2026C366.651 52.1616 366.355 50.3444 365.765 48.751C365.192 47.1396 364.332 45.8774 363.187 44.9644C362.041 44.0334 360.617 43.5679 358.917 43.5679C357.234 43.5679 355.819 44.0334 354.673 44.9644C353.528 45.8774 352.668 47.1396 352.095 48.751C351.522 50.3444 351.236 52.1616 351.236 54.2026V54.7935C351.236 57.8729 351.88 60.4152 353.169 62.4204C354.476 64.4256 356.41 65.4282 358.97 65.4282ZM390.123 69.564C387.437 69.564 385.118 68.9373 383.167 67.6841C381.233 66.4129 379.738 64.6673 378.682 62.4473C377.626 60.2093 377.098 57.658 377.098 54.7935V54.2026C377.098 51.3381 377.626 48.7957 378.682 46.5757C379.738 44.3377 381.233 42.5832 383.167 41.312C385.118 40.0409 387.419 39.4053 390.069 39.4053C392.754 39.4053 395.064 40.0409 396.998 41.312C398.949 42.5832 400.453 44.3288 401.509 46.5488C402.566 48.7689 403.094 51.3201 403.094 54.2026V54.7935C403.094 57.6759 402.566 60.2362 401.509 62.4741C400.453 64.6942 398.958 66.4308 397.024 67.6841C395.091 68.9373 392.79 69.564 390.123 69.564ZM390.123 65.4282C392.629 65.4282 394.536 64.4256 395.843 62.4204C397.15 60.4152 397.803 57.8729 397.803 54.7935V54.2026C397.803 52.1616 397.508 50.3444 396.917 48.751C396.344 47.1396 395.485 45.8774 394.339 44.9644C393.193 44.0334 391.77 43.5679 390.069 43.5679C388.386 43.5679 386.972 44.0334 385.826 44.9644C384.68 45.8774 383.82 47.1396 383.248 48.751C382.675 50.3444 382.388 52.1616 382.388 54.2026V54.7935C382.388 57.8729 383.033 60.4152 384.322 62.4204C385.629 64.4256 387.562 65.4282 390.123 65.4282ZM406.37 69V65.6162L410.748 64.8643V31.2681L406.37 30.5161V27.1055H416.038V54.0952L426.324 43.8633L426.458 43.7021L423.343 43.353V39.9424H435.857V43.353L432.125 44.0513L423.96 52.269L433.978 64.9717L438.167 65.6162V69H425.035V65.6162L427.989 65.2671L427.908 65.1597L420.55 55.6797L416.038 60.2183V64.8643L420.416 65.6162V69H406.37ZM452.991 69.564C451.04 69.564 449.214 69.367 447.513 68.9731C445.812 68.5793 444.004 67.9705 442.088 67.147L442.034 60.2451H446.036L447.029 64.4077C448.927 65.1955 450.914 65.5894 452.991 65.5894C455.14 65.5894 456.679 65.1776 457.61 64.354C458.541 63.5304 459.007 62.5099 459.007 61.2925C459.007 60.1466 458.532 59.1799 457.583 58.3921C456.653 57.5864 454.952 56.9061 452.481 56.3511C448.972 55.5454 446.385 54.4712 444.72 53.1284C443.073 51.7677 442.249 49.9595 442.249 47.7036C442.249 46.1281 442.706 44.7227 443.619 43.4873C444.532 42.234 445.803 41.2404 447.432 40.5063C449.061 39.7723 450.959 39.4053 453.125 39.4053C455.328 39.4053 457.208 39.6559 458.765 40.1572C460.341 40.6585 461.71 41.3299 462.874 42.1714L463.143 48.8047H459.168L458.309 44.9375C457.682 44.472 456.939 44.1139 456.08 43.8633C455.22 43.6126 454.236 43.4873 453.125 43.4873C451.478 43.4873 450.136 43.8722 449.097 44.6421C448.077 45.4119 447.566 46.3787 447.566 47.5425C447.566 48.2228 447.71 48.8136 447.996 49.3149C448.3 49.8162 448.873 50.2728 449.715 50.6846C450.556 51.0785 451.792 51.4723 453.421 51.8662C457.467 52.8151 460.287 54.0236 461.88 55.4917C463.492 56.9598 464.297 58.7681 464.297 60.9165C464.297 63.3693 463.384 65.4282 461.558 67.0933C459.75 68.7404 456.894 69.564 452.991 69.564Z" fill="#616161"/>
<path d="M312.265 89.5742C307.06 88.1061 303.349 85.7705 301.134 82.5674C298.945 79.3643 297.851 75.4938 297.851 70.9561V62.748C297.851 59.7585 297.17 57.4362 295.809 55.7812C294.447 54.0996 292.352 53.2588 289.522 53.2588V47.373C292.352 47.373 294.447 46.5589 295.809 44.9307C297.17 43.2757 297.851 40.9401 297.851 37.9238V29.6758C297.851 25.1113 298.945 21.2409 301.134 18.0645C303.349 14.8613 307.06 12.5257 312.265 11.0576L313.866 15.7422C310.93 16.6764 308.835 18.3581 307.58 20.7871C306.352 23.1895 305.738 26.1523 305.738 29.6758V37.9238C305.738 40.7266 305.178 43.1956 304.057 45.3311C302.936 47.4665 301.241 49.1348 298.972 50.3359C301.241 51.5638 302.936 53.2588 304.057 55.4209C305.178 57.5563 305.738 59.9987 305.738 62.748V70.9561C305.738 74.4795 306.352 77.429 307.58 79.8047C308.835 82.207 310.93 83.8887 313.866 84.8496L312.265 89.5742Z" fill="#F37726"/>
<path d="M21.2271 68.564C18.5415 68.564 16.2051 67.9552 14.2178 66.7378C12.2305 65.5024 10.6908 63.7926 9.59863 61.6084C8.52441 59.4242 7.9873 56.8997 7.9873 54.0352V52.8535C7.9873 50.0964 8.55127 47.6346 9.6792 45.4683C10.825 43.284 12.3379 41.5653 14.2178 40.312C16.1156 39.0409 18.1834 38.4053 20.4214 38.4053C24.3244 38.4053 27.2785 39.5869 29.2837 41.9502C31.3068 44.3135 32.3184 47.4645 32.3184 51.4033V54.7065H13.4658L13.3853 54.8408C13.439 57.6338 14.1462 59.9344 15.5068 61.7427C16.8675 63.533 18.7743 64.4282 21.2271 64.4282C23.0174 64.4282 24.584 64.1776 25.9268 63.6763C27.2874 63.1571 28.4601 62.4499 29.4448 61.5547L31.5127 64.9922C30.4743 65.9948 29.0957 66.8452 27.377 67.5435C25.6761 68.2238 23.6261 68.564 21.2271 68.564ZM13.627 50.5708H27.0278V49.8726C27.0278 47.7957 26.4728 46.0591 25.3628 44.6626C24.2528 43.2661 22.6056 42.5679 20.4214 42.5679C18.6489 42.5679 17.1361 43.3198 15.8828 44.8237C14.6296 46.3097 13.8597 48.1807 13.5732 50.4365L13.627 50.5708ZM35.5947 68V64.6162L38.8174 63.9985L47.4917 53.3101L39.0054 42.9707L36.1318 42.353V38.9424H47.5186V42.353L44.6182 42.6753L50.5801 50.0874L56.3809 42.6484L53.2656 42.353V38.9424H64.4644V42.353L61.5103 42.9707L53.6416 53.2295L62.6919 63.9985L65.6997 64.6162V68H53.373V64.6162L56.8643 64.3208L50.4995 56.5596L44.3228 64.3208L47.4648 64.6162V68H35.5947ZM81.4907 68.564C78.8052 68.564 76.4688 67.9552 74.4814 66.7378C72.4941 65.5024 70.9544 63.7926 69.8623 61.6084C68.7881 59.4242 68.251 56.8997 68.251 54.0352V52.8535C68.251 50.0964 68.8149 47.6346 69.9429 45.4683C71.0887 43.284 72.6016 41.5653 74.4814 40.312C76.3792 39.0409 78.4471 38.4053 80.6851 38.4053C84.5881 38.4053 87.5422 39.5869 89.5474 41.9502C91.5705 44.3135 92.582 47.4645 92.582 51.4033V54.7065H73.7295L73.6489 54.8408C73.7026 57.6338 74.4098 59.9344 75.7705 61.7427C77.1312 63.533 79.0379 64.4282 81.4907 64.4282C83.2811 64.4282 84.8477 64.1776 86.1904 63.6763C87.5511 63.1571 88.7238 62.4499 89.7085 61.5547L91.7764 64.9922C90.738 65.9948 89.3594 66.8452 87.6406 67.5435C85.9398 68.2238 83.8898 68.564 81.4907 68.564ZM73.8906 50.5708H87.2915V49.8726C87.2915 47.7957 86.7365 46.0591 85.6265 44.6626C84.5164 43.2661 82.8693 42.5679 80.6851 42.5679C78.9126 42.5679 77.3997 43.3198 76.1465 44.8237C74.8932 46.3097 74.1234 48.1807 73.8369 50.4365L73.8906 50.5708ZM110.924 68.564C108.292 68.564 106.001 67.9552 104.049 66.7378C102.098 65.5024 100.585 63.7926 99.5107 61.6084C98.4365 59.4242 97.8994 56.8997 97.8994 54.0352V52.9072C97.8994 50.1501 98.4186 47.6794 99.457 45.4951C100.495 43.3109 101.99 41.5832 103.942 40.312C105.893 39.0409 108.221 38.4053 110.924 38.4053C113.27 38.4053 115.32 38.7902 117.074 39.5601C118.847 40.3299 120.333 41.3862 121.532 42.729L121.667 49.7114H117.531L116.618 44.6357C116.009 44.0091 115.248 43.5078 114.335 43.1318C113.422 42.7559 112.348 42.5679 111.112 42.5679C109.537 42.5679 108.149 43.0334 106.95 43.9644C105.768 44.8953 104.846 46.1396 104.184 47.6973C103.521 49.2549 103.19 50.9915 103.19 52.9072V54.0352C103.19 57.222 103.879 59.7554 105.258 61.6353C106.636 63.4972 108.516 64.4282 110.897 64.4282C112.688 64.4282 114.174 63.9359 115.355 62.9512C116.537 61.9665 117.262 60.6147 117.531 58.896H122.284L122.338 59.0571C122.248 60.7222 121.756 62.2798 120.861 63.73C119.966 65.1802 118.686 66.3529 117.021 67.248C115.373 68.1253 113.341 68.564 110.924 68.564ZM139.257 68.564C136.106 68.564 133.644 67.5524 131.872 65.5293C130.099 63.5062 129.213 60.3551 129.213 56.0762V43.105L125.883 42.353V38.9424H134.503V56.1299C134.503 59.2272 134.96 61.3577 135.873 62.5215C136.786 63.6852 138.209 64.2671 140.143 64.2671C142.023 64.2671 143.572 63.8911 144.789 63.1392C146.024 62.3693 146.955 61.2861 147.582 59.8896V43.105L143.688 42.353V38.9424H152.873V63.8643L156.203 64.6162V68H148.119L147.77 63.7031C146.857 65.2607 145.675 66.4603 144.225 67.3018C142.793 68.1432 141.137 68.564 139.257 68.564ZM170.194 68.4565C168.046 68.4565 166.336 67.8299 165.065 66.5767C163.812 65.3055 163.185 63.2824 163.185 60.5073V42.8633H158.593V38.9424H163.185V31.9331H168.476V38.9424H174.787V42.8633H168.476V60.5073C168.476 61.9038 168.753 62.9333 169.308 63.5957C169.863 64.2581 170.606 64.5894 171.537 64.5894C172.164 64.5894 172.862 64.5356 173.632 64.4282C174.402 64.3029 175.001 64.1955 175.431 64.106L176.156 67.5703C175.386 67.8031 174.438 68.009 173.31 68.188C172.2 68.367 171.161 68.4565 170.194 68.4565ZM188.939 68.564C185.914 68.564 183.613 67.8299 182.038 66.3618C180.462 64.8758 179.674 62.79 179.674 60.1045C179.674 57.3473 180.802 55.1362 183.058 53.4712C185.314 51.7882 188.447 50.9468 192.458 50.9468H197.641V48.1001C197.641 46.3455 197.104 44.9849 196.029 44.0181C194.973 43.0513 193.478 42.5679 191.544 42.5679C190.327 42.5679 189.271 42.7201 188.375 43.0244C187.48 43.3109 186.666 43.7137 185.932 44.2329L185.368 48.2881H181.286V41.6279C183.917 39.4795 187.364 38.4053 191.625 38.4053C195.152 38.4053 197.918 39.2467 199.923 40.9297C201.929 42.6126 202.931 45.0207 202.931 48.1538V62.1455C202.931 62.5215 202.931 62.8885 202.931 63.2466C202.949 63.6047 202.976 63.9627 203.012 64.3208L205.832 64.6162V68H198.231C197.927 66.5319 197.739 65.1981 197.667 63.9985C196.647 65.3055 195.367 66.3976 193.827 67.2749C192.305 68.1343 190.676 68.564 188.939 68.564ZM189.718 64.1328C191.473 64.1328 193.075 63.7121 194.525 62.8706C195.976 62.0291 197.014 61.0176 197.641 59.8359V54.5723H192.27C189.835 54.5723 188.008 55.1541 186.791 56.3179C185.574 57.4816 184.965 58.7796 184.965 60.2119C184.965 62.8258 186.549 64.1328 189.718 64.1328ZM225.382 68.564C221.64 68.564 218.83 67.1317 216.95 64.2671L216.466 68H211.901V30.2681L207.523 29.5161V26.1055H217.191V42.3799C218.104 41.0908 219.232 40.1061 220.575 39.4258C221.936 38.7454 223.52 38.4053 225.329 38.4053C227.728 38.4053 229.769 39.0588 231.452 40.3657C233.153 41.6548 234.451 43.472 235.346 45.8174C236.259 48.1628 236.715 50.8931 236.715 54.0083V54.5723C236.715 57.3652 236.259 59.8091 235.346 61.9038C234.451 63.9985 233.153 65.6367 231.452 66.8184C229.769 67.9821 227.746 68.564 225.382 68.564ZM224.04 64.2671C226.528 64.2671 228.372 63.3809 229.572 61.6084C230.789 59.8359 231.398 57.4906 231.398 54.5723V54.0083C231.398 50.6603 230.789 47.939 229.572 45.8442C228.354 43.7495 226.492 42.7021 223.986 42.7021C222.357 42.7021 220.978 43.096 219.85 43.8838C218.74 44.6715 217.854 45.7279 217.191 47.0527V59.8896C217.854 61.2324 218.749 62.2977 219.877 63.0854C221.023 63.8732 222.41 64.2671 224.04 64.2671ZM240.18 68V64.6162L244.557 63.8643V30.2681L240.18 29.5161V26.1055H249.848V63.8643L254.225 64.6162V68H240.18ZM270.714 68.564C268.029 68.564 265.692 67.9552 263.705 66.7378C261.718 65.5024 260.178 63.7926 259.086 61.6084C258.012 59.4242 257.475 56.8997 257.475 54.0352V52.8535C257.475 50.0964 258.039 47.6346 259.167 45.4683C260.312 43.284 261.825 41.5653 263.705 40.312C265.603 39.0409 267.671 38.4053 269.909 38.4053C273.812 38.4053 276.766 39.5869 278.771 41.9502C280.794 44.3135 281.806 47.4645 281.806 51.4033V54.7065H262.953L262.873 54.8408C262.926 57.6338 263.633 59.9344 264.994 61.7427C266.355 63.533 268.262 64.4282 270.714 64.4282C272.505 64.4282 274.071 64.1776 275.414 63.6763C276.775 63.1571 277.947 62.4499 278.932 61.5547L281 64.9922C279.962 65.9948 278.583 66.8452 276.864 67.5435C275.163 68.2238 273.113 68.564 270.714 68.564ZM263.114 50.5708H276.515V49.8726C276.515 47.7957 275.96 46.0591 274.85 44.6626C273.74 43.2661 272.093 42.5679 269.909 42.5679C268.136 42.5679 266.623 43.3198 265.37 44.8237C264.117 46.3097 263.347 48.1807 263.061 50.4365L263.114 50.5708Z" fill="#616161"/>
</svg>
